<svg xmlns="http://www.w3.org/2000/svg" viewBox="0 0 67 67"><g><g stroke="#000"><g stroke-linecap="round" stroke-linejoin="bevel" transform="translate(-238.46 -8.2304) translate(9.7352)"><circle cx="42.5" cy="42.5" r="32.5" fill="#fedaa4" stroke-width="2" transform="translate(219.73 -.76955)"/><circle cx="42.5" cy="42.5" r="32.5" fill="none" stroke-width="2.233" transform="matrix(.89566 0 0 .89566 224.16 3.6649)"/></g><g fill="none" stroke-width="1.213" transform="translate(-238.46 -8.2304) translate(9.7352) matrix(0 1.6096 -1.6897 0 1158.6 -484.15)"><circle cx="328.36" cy="530.18" r="3.094" stroke-linecap="round" stroke-linejoin="round" color="#000"/><circle cx="328.36" cy="530.49" r="5.114" stroke-linecap="round" stroke-linejoin="round" color="#000" transform="translate(0 -.31567)"/><path d="m328.93 525.19c.10522-1.4521-.29463-5.2402-.56821-8.2706l-3.3461-.0631c-2.8283 7.3093-5.76 14.201-4.9245 18.183.83548 3.982 5.1928 5.5383 7.955 2.4622l1.9572 2.7779 3e-5 3.7249 2.2728.18944-.0631-4.3563-2.9042-4.4825"/></g></g></g></svg>