<svg xmlns="http://www.w3.org/2000/svg" viewBox="0 0 67 67"><g><g stroke="#000"><g stroke-linecap="round" stroke-linejoin="bevel" transform="translate(-191 -7.8769) translate(-3.972)"><circle cx="42.5" cy="42.5" r="32.5" fill="#fedaa4" stroke-width="2" transform="translate(185.97 -1.1231)"/><circle cx="42.5" cy="42.5" r="32.5" fill="none" stroke-width="2.233" transform="matrix(.89566 0 0 .89566 190.4 3.3113)"/></g><g transform="translate(-191 -7.8769) translate(-3.972) matrix(-.57488 1.564 -1.564 -.57488 1476.2 -419.09)"><path fill="none" stroke-width="1.2" d="m509.85 611.92c4.0276 6.2063 12.506 4.9669 20.506 1.1536l-5.7143-15.714c-2.3309 1.6559-3.7214 2.5256-6.0714 5.3571l-.71429-5.7143c.11905-1.369-1.7262-3.4524-3.9286-1.4286l-3.5714 7.8571h-2.8571c.10009 2.0132.37569 3.7518.80253 5.2426"/><circle cx="514.11" cy="602.81" r=".982" fill="#a00" stroke-width="1.795" color="#000" transform="matrix(.66867 0 0 .66867 169.71 199.5)"/><path fill="none" stroke-linecap="round" stroke-linejoin="round" stroke-width="1.2" d="m512.05 607.36-7.2321 2.0536c1.8548 2.0784 5.5009 3.023 8.4821 2.3214"/></g></g></g></svg>