<svg xmlns="http://www.w3.org/2000/svg" viewBox="0 0 67 67"><g><g stroke="#000" transform="translate(-148.69 -10.75) translate(50.938 .5)"><circle cx="42.5" cy="42.5" r="32.5" fill="#fedaa4" stroke-linecap="round" stroke-linejoin="bevel" stroke-width="2" transform="translate(88.75,1.25)"/><circle cx="42.5" cy="42.5" r="32.5" fill="none" stroke-linecap="round" stroke-linejoin="bevel" stroke-width="2.233" transform="matrix(.89566 0 0 .89566 93.184 5.6844)"/><path stroke-width="1" d="m129.84 31v9.2188h-16.406l1.25 1.25c.9375-.31248 1.9792-.46873 3.125-.46875h12.031v16.406h-13.594l1.25 1.25c.93749-.3125 1.9792-.46875 3.125-.46875h25.781l-3.125-3.125-2.1875 2.3438h-8.9062v-16.406h16.875l-2.9688-3.125-2.3438 2.3438h-11.562v-11.562l1.25-1.0938-3.75-1.7188c.10415 2.1875.15623 3.9063.15625 5.1562z"/></g></g></svg>